<svg width="50" height="50" viewBox="0 0 50 50" fill="none" xmlns="http://www.w3.org/2000/svg">
<circle cx="25" cy="25" r="23.5" fill="white" stroke="black" stroke-width="3"/>
<path d="M15.8333 18.7857C15.8333 18.0756 16.409 17.5 17.119 17.5H32.0476C32.7577 17.5 33.3333 18.0756 33.3333 18.7857V18.7857C33.3333 19.4958 32.7577 20.0714 32.0476 20.0714H17.119C16.409 20.0714 15.8333 19.4958 15.8333 18.7857V18.7857Z" fill="black"/>
<path d="M15.8333 25.2143C15.8333 24.5042 16.409 23.9286 17.119 23.9286H32.0476C32.7577 23.9286 33.3333 24.5042 33.3333 25.2143V25.2143C33.3333 25.9244 32.7577 26.5 32.0476 26.5H17.119C16.409 26.5 15.8333 25.9244 15.8333 25.2143V25.2143Z" fill="black"/>
<path d="M15.8333 31.2143C15.8333 30.5042 16.409 29.9286 17.119 29.9286H32.0476C32.7577 29.9286 33.3333 30.5042 33.3333 31.2143V31.2143C33.3333 31.9244 32.7577 32.5 32.0476 32.5H17.119C16.409 32.5 15.8333 31.9244 15.8333 31.2143V31.2143Z" fill="black"/>
</svg>
